<mxfile host="Electron" agent="Mozilla/5.0 (Macintosh; Intel Mac OS X 10_15_7) AppleWebKit/537.36 (KHTML, like Gecko) draw.io/26.2.2 Chrome/134.0.6998.178 Electron/35.1.2 Safari/537.36" version="26.2.2" pages="2">
  <diagram name="overview" id="24oYbbnlZCqQbWXse0kM">
    <mxGraphModel dx="1428" dy="859" grid="1" gridSize="10" guides="1" tooltips="1" connect="1" arrows="1" fold="1" page="1" pageScale="1" pageWidth="1654" pageHeight="1169" math="0" shadow="0">
      <root>
        <mxCell id="0" />
        <mxCell id="1" parent="0" />
        <mxCell id="yCgo7jyeTwLT6z7LS6PS-30" value="" style="rounded=1;whiteSpace=wrap;html=1;" vertex="1" parent="1">
          <mxGeometry x="500" y="510" width="410" height="190" as="geometry" />
        </mxCell>
        <mxCell id="yCgo7jyeTwLT6z7LS6PS-24" value="" style="rounded=1;whiteSpace=wrap;html=1;" vertex="1" parent="1">
          <mxGeometry x="500" y="140" width="410" height="320" as="geometry" />
        </mxCell>
        <mxCell id="yCgo7jyeTwLT6z7LS6PS-2" value="aks-cluster&lt;div&gt;(running MAS)&lt;/div&gt;" style="image;aspect=fixed;html=1;points=[];align=center;fontSize=12;image=img/lib/azure2/compute/Kubernetes_Services.svg;" vertex="1" parent="1">
          <mxGeometry x="490" y="130" width="68" height="60" as="geometry" />
        </mxCell>
        <mxCell id="yCgo7jyeTwLT6z7LS6PS-27" value="Azure Monitor Python SDK" style="edgeStyle=orthogonalEdgeStyle;rounded=0;orthogonalLoop=1;jettySize=auto;html=1;curved=1;" edge="1" parent="1" source="yCgo7jyeTwLT6z7LS6PS-3" target="yCgo7jyeTwLT6z7LS6PS-9">
          <mxGeometry relative="1" as="geometry">
            <Array as="points">
              <mxPoint x="625" y="90" />
              <mxPoint x="1382" y="90" />
            </Array>
          </mxGeometry>
        </mxCell>
        <mxCell id="yCgo7jyeTwLT6z7LS6PS-29" value="kubectl" style="edgeStyle=orthogonalEdgeStyle;rounded=0;orthogonalLoop=1;jettySize=auto;html=1;curved=1;" edge="1" parent="1" source="yCgo7jyeTwLT6z7LS6PS-3" target="yCgo7jyeTwLT6z7LS6PS-13">
          <mxGeometry x="-0.1479" y="-26" relative="1" as="geometry">
            <mxPoint as="offset" />
          </mxGeometry>
        </mxCell>
        <mxCell id="yCgo7jyeTwLT6z7LS6PS-3" value="mas" style="aspect=fixed;sketch=0;html=1;dashed=0;whitespace=wrap;verticalLabelPosition=bottom;verticalAlign=top;fillColor=#2875E2;strokeColor=#ffffff;points=[[0.005,0.63,0],[0.1,0.2,0],[0.9,0.2,0],[0.5,0,0],[0.995,0.63,0],[0.72,0.99,0],[0.5,1,0],[0.28,0.99,0]];shape=mxgraph.kubernetes.icon2;kubernetesLabel=1;prIcon=pod" vertex="1" parent="1">
          <mxGeometry x="730" y="330" width="50" height="48" as="geometry" />
        </mxCell>
        <mxCell id="yCgo7jyeTwLT6z7LS6PS-8" style="edgeStyle=orthogonalEdgeStyle;rounded=0;orthogonalLoop=1;jettySize=auto;html=1;curved=1;" edge="1" parent="1" source="yCgo7jyeTwLT6z7LS6PS-4" target="yCgo7jyeTwLT6z7LS6PS-6">
          <mxGeometry relative="1" as="geometry" />
        </mxCell>
        <mxCell id="yCgo7jyeTwLT6z7LS6PS-4" value="mas" style="aspect=fixed;sketch=0;html=1;dashed=0;whitespace=wrap;verticalLabelPosition=bottom;verticalAlign=top;fillColor=#2875E2;strokeColor=#ffffff;points=[[0.005,0.63,0],[0.1,0.2,0],[0.9,0.2,0],[0.5,0,0],[0.995,0.63,0],[0.72,0.99,0],[0.5,1,0],[0.28,0.99,0]];shape=mxgraph.kubernetes.icon2;kubernetesLabel=1;prIcon=svc" vertex="1" parent="1">
          <mxGeometry x="740" y="160" width="50" height="48" as="geometry" />
        </mxCell>
        <mxCell id="yCgo7jyeTwLT6z7LS6PS-33" style="edgeStyle=orthogonalEdgeStyle;rounded=0;orthogonalLoop=1;jettySize=auto;html=1;curved=1;" edge="1" parent="1" source="yCgo7jyeTwLT6z7LS6PS-5" target="yCgo7jyeTwLT6z7LS6PS-20">
          <mxGeometry relative="1" as="geometry" />
        </mxCell>
        <mxCell id="yCgo7jyeTwLT6z7LS6PS-5" value="service acount" style="aspect=fixed;sketch=0;html=1;dashed=0;whitespace=wrap;verticalLabelPosition=bottom;verticalAlign=top;fillColor=#2875E2;strokeColor=#ffffff;points=[[0.005,0.63,0],[0.1,0.2,0],[0.9,0.2,0],[0.5,0,0],[0.995,0.63,0],[0.72,0.99,0],[0.5,1,0],[0.28,0.99,0]];shape=mxgraph.kubernetes.icon2;kubernetesLabel=1;prIcon=sa" vertex="1" parent="1">
          <mxGeometry x="570" y="330" width="50" height="48" as="geometry" />
        </mxCell>
        <mxCell id="yCgo7jyeTwLT6z7LS6PS-19" value="/alert" style="edgeStyle=orthogonalEdgeStyle;rounded=0;orthogonalLoop=1;jettySize=auto;html=1;curved=1;" edge="1" parent="1" source="yCgo7jyeTwLT6z7LS6PS-6" target="yCgo7jyeTwLT6z7LS6PS-3">
          <mxGeometry relative="1" as="geometry">
            <mxPoint as="offset" />
          </mxGeometry>
        </mxCell>
        <mxCell id="yCgo7jyeTwLT6z7LS6PS-6" value="load balancer" style="image;aspect=fixed;html=1;points=[];align=center;fontSize=12;image=img/lib/azure2/networking/Load_Balancers.svg;" vertex="1" parent="1">
          <mxGeometry x="910" y="248" width="72" height="72" as="geometry" />
        </mxCell>
        <mxCell id="yCgo7jyeTwLT6z7LS6PS-14" style="edgeStyle=orthogonalEdgeStyle;rounded=0;orthogonalLoop=1;jettySize=auto;html=1;startArrow=classic;startFill=1;" edge="1" parent="1" source="yCgo7jyeTwLT6z7LS6PS-9" target="yCgo7jyeTwLT6z7LS6PS-13">
          <mxGeometry relative="1" as="geometry" />
        </mxCell>
        <mxCell id="yCgo7jyeTwLT6z7LS6PS-15" style="edgeStyle=orthogonalEdgeStyle;rounded=0;orthogonalLoop=1;jettySize=auto;html=1;" edge="1" parent="1" source="yCgo7jyeTwLT6z7LS6PS-9" target="yCgo7jyeTwLT6z7LS6PS-10">
          <mxGeometry relative="1" as="geometry" />
        </mxCell>
        <mxCell id="yCgo7jyeTwLT6z7LS6PS-9" value="Azure Monitor&lt;div&gt;&lt;br&gt;&lt;/div&gt;" style="image;aspect=fixed;html=1;points=[];align=left;fontSize=12;image=img/lib/azure2/management_governance/Monitor.svg;labelPosition=right;verticalLabelPosition=middle;verticalAlign=middle;" vertex="1" parent="1">
          <mxGeometry x="1350" y="253" width="64" height="64" as="geometry" />
        </mxCell>
        <mxCell id="yCgo7jyeTwLT6z7LS6PS-16" value="http" style="edgeStyle=orthogonalEdgeStyle;rounded=0;orthogonalLoop=1;jettySize=auto;html=1;" edge="1" parent="1" source="yCgo7jyeTwLT6z7LS6PS-10" target="yCgo7jyeTwLT6z7LS6PS-6">
          <mxGeometry relative="1" as="geometry" />
        </mxCell>
        <mxCell id="yCgo7jyeTwLT6z7LS6PS-10" value="alert using&amp;nbsp;&lt;div&gt;action group&lt;/div&gt;&lt;div&gt;webhook&lt;/div&gt;" style="image;sketch=0;aspect=fixed;html=1;points=[];align=center;fontSize=12;image=img/lib/mscae/Notification.svg;" vertex="1" parent="1">
          <mxGeometry x="1180" y="260" width="50" height="50" as="geometry" />
        </mxCell>
        <mxCell id="yCgo7jyeTwLT6z7LS6PS-13" value="monitored cluster" style="image;aspect=fixed;html=1;points=[];align=center;fontSize=12;image=img/lib/azure2/compute/Kubernetes_Services.svg;" vertex="1" parent="1">
          <mxGeometry x="1348" y="550" width="68" height="60" as="geometry" />
        </mxCell>
        <mxCell id="yCgo7jyeTwLT6z7LS6PS-20" value="mas" style="image;sketch=0;aspect=fixed;html=1;points=[];align=center;fontSize=12;image=img/lib/mscae/Managed_Identities.svg;" vertex="1" parent="1">
          <mxGeometry x="680" y="570" width="38" height="50" as="geometry" />
        </mxCell>
        <mxCell id="yCgo7jyeTwLT6z7LS6PS-31" value="Entra ID" style="image;aspect=fixed;html=1;points=[];align=center;fontSize=12;image=img/lib/azure2/other/Entra_Identity.svg;" vertex="1" parent="1">
          <mxGeometry x="480" y="490" width="68" height="60.440000000000005" as="geometry" />
        </mxCell>
      </root>
    </mxGraphModel>
  </diagram>
  <diagram id="veQMKEEXwqZpfNq_KVle" name="mas_sequence_diagram">
    <mxGraphModel dx="1667" dy="893" grid="1" gridSize="10" guides="1" tooltips="1" connect="1" arrows="1" fold="1" page="1" pageScale="1" pageWidth="1654" pageHeight="1169" math="0" shadow="0">
      <root>
        <mxCell id="0" />
        <mxCell id="1" parent="0" />
        <mxCell id="eCi2nVNfZXWdF3Dx-J9_-16" value="Client" style="shape=umlLifeline;perimeter=lifelinePerimeter;whiteSpace=wrap;container=1;dropTarget=0;collapsible=0;recursiveResize=0;outlineConnect=0;portConstraint=eastwest;newEdgeStyle={&quot;edgeStyle&quot;:&quot;elbowEdgeStyle&quot;,&quot;elbow&quot;:&quot;vertical&quot;,&quot;curved&quot;:0,&quot;rounded&quot;:0};size=65;" parent="1" vertex="1">
          <mxGeometry x="170" y="100" width="150" height="868" as="geometry" />
        </mxCell>
        <mxCell id="eCi2nVNfZXWdF3Dx-J9_-17" value="FastAPI" style="shape=umlLifeline;perimeter=lifelinePerimeter;whiteSpace=wrap;container=1;dropTarget=0;collapsible=0;recursiveResize=0;outlineConnect=0;portConstraint=eastwest;newEdgeStyle={&quot;edgeStyle&quot;:&quot;elbowEdgeStyle&quot;,&quot;elbow&quot;:&quot;vertical&quot;,&quot;curved&quot;:0,&quot;rounded&quot;:0};size=65;" parent="1" vertex="1">
          <mxGeometry x="419" y="100" width="150" height="868" as="geometry" />
        </mxCell>
        <mxCell id="eCi2nVNfZXWdF3Dx-J9_-18" value="Agents" style="shape=umlLifeline;perimeter=lifelinePerimeter;whiteSpace=wrap;container=1;dropTarget=0;collapsible=0;recursiveResize=0;outlineConnect=0;portConstraint=eastwest;newEdgeStyle={&quot;edgeStyle&quot;:&quot;elbowEdgeStyle&quot;,&quot;elbow&quot;:&quot;vertical&quot;,&quot;curved&quot;:0,&quot;rounded&quot;:0};size=65;" parent="1" vertex="1">
          <mxGeometry x="619" y="100" width="150" height="868" as="geometry" />
        </mxCell>
        <mxCell id="eCi2nVNfZXWdF3Dx-J9_-19" value="AzureOpenAI" style="shape=umlLifeline;perimeter=lifelinePerimeter;whiteSpace=wrap;container=1;dropTarget=0;collapsible=0;recursiveResize=0;outlineConnect=0;portConstraint=eastwest;newEdgeStyle={&quot;edgeStyle&quot;:&quot;elbowEdgeStyle&quot;,&quot;elbow&quot;:&quot;vertical&quot;,&quot;curved&quot;:0,&quot;rounded&quot;:0};size=65;" parent="1" vertex="1">
          <mxGeometry x="840" y="100" width="150" height="868" as="geometry" />
        </mxCell>
        <mxCell id="eCi2nVNfZXWdF3Dx-J9_-20" value="AKS_Specialist" style="shape=umlLifeline;perimeter=lifelinePerimeter;whiteSpace=wrap;container=1;dropTarget=0;collapsible=0;recursiveResize=0;outlineConnect=0;portConstraint=eastwest;newEdgeStyle={&quot;edgeStyle&quot;:&quot;elbowEdgeStyle&quot;,&quot;elbow&quot;:&quot;vertical&quot;,&quot;curved&quot;:0,&quot;rounded&quot;:0};size=65;" parent="1" vertex="1">
          <mxGeometry x="1040" y="100" width="150" height="868" as="geometry" />
        </mxCell>
        <mxCell id="eCi2nVNfZXWdF3Dx-J9_-21" value="KQL_Specialist" style="shape=umlLifeline;perimeter=lifelinePerimeter;whiteSpace=wrap;container=1;dropTarget=0;collapsible=0;recursiveResize=0;outlineConnect=0;portConstraint=eastwest;newEdgeStyle={&quot;edgeStyle&quot;:&quot;elbowEdgeStyle&quot;,&quot;elbow&quot;:&quot;vertical&quot;,&quot;curved&quot;:0,&quot;rounded&quot;:0};size=65;" parent="1" vertex="1">
          <mxGeometry x="1240" y="100" width="150" height="868" as="geometry" />
        </mxCell>
        <mxCell id="eCi2nVNfZXWdF3Dx-J9_-22" value="AzureMonitor" style="shape=umlLifeline;perimeter=lifelinePerimeter;whiteSpace=wrap;container=1;dropTarget=0;collapsible=0;recursiveResize=0;outlineConnect=0;portConstraint=eastwest;newEdgeStyle={&quot;edgeStyle&quot;:&quot;elbowEdgeStyle&quot;,&quot;elbow&quot;:&quot;vertical&quot;,&quot;curved&quot;:0,&quot;rounded&quot;:0};size=65;" parent="1" vertex="1">
          <mxGeometry x="1475" y="100" width="150" height="868" as="geometry" />
        </mxCell>
        <mxCell id="eCi2nVNfZXWdF3Dx-J9_-23" value="K8s" style="shape=umlLifeline;perimeter=lifelinePerimeter;whiteSpace=wrap;container=1;dropTarget=0;collapsible=0;recursiveResize=0;outlineConnect=0;portConstraint=eastwest;newEdgeStyle={&quot;edgeStyle&quot;:&quot;elbowEdgeStyle&quot;,&quot;elbow&quot;:&quot;vertical&quot;,&quot;curved&quot;:0,&quot;rounded&quot;:0};size=65;" parent="1" vertex="1">
          <mxGeometry x="1675" y="100" width="150" height="868" as="geometry" />
        </mxCell>
        <mxCell id="eCi2nVNfZXWdF3Dx-J9_-24" value="SDK" style="shape=umlFrame;dashed=1;pointerEvents=0;dropTarget=0;strokeColor=#B3B3B3;height=20;width=30" parent="1" vertex="1">
          <mxGeometry x="1304" y="405" width="257" height="137" as="geometry" />
        </mxCell>
        <mxCell id="eCi2nVNfZXWdF3Dx-J9_-25" value="[KQL Query Path]" style="text;strokeColor=none;fillColor=none;align=center;verticalAlign=middle;whiteSpace=wrap;" parent="eCi2nVNfZXWdF3Dx-J9_-24" vertex="1">
          <mxGeometry x="30" width="227" height="20" as="geometry" />
        </mxCell>
        <mxCell id="eCi2nVNfZXWdF3Dx-J9_-26" value="kubectl" style="shape=umlFrame;dashed=1;pointerEvents=0;dropTarget=0;strokeColor=#B3B3B3;height=20;width=30" parent="1" vertex="1">
          <mxGeometry x="1104" y="552" width="657" height="137" as="geometry" />
        </mxCell>
        <mxCell id="eCi2nVNfZXWdF3Dx-J9_-27" value="[AKS Operations Path]" style="text;strokeColor=none;fillColor=none;align=center;verticalAlign=middle;whiteSpace=wrap;" parent="eCi2nVNfZXWdF3Dx-J9_-26" vertex="1">
          <mxGeometry x="30" width="627" height="20" as="geometry" />
        </mxCell>
        <mxCell id="eCi2nVNfZXWdF3Dx-J9_-28" value="POST /alert with payload" style="verticalAlign=bottom;edgeStyle=elbowEdgeStyle;elbow=vertical;curved=0;rounded=0;endArrow=block;" parent="1" source="eCi2nVNfZXWdF3Dx-J9_-16" target="eCi2nVNfZXWdF3Dx-J9_-17" edge="1">
          <mxGeometry relative="1" as="geometry">
            <Array as="points">
              <mxPoint x="378" y="201" />
            </Array>
          </mxGeometry>
        </mxCell>
        <mxCell id="eCi2nVNfZXWdF3Dx-J9_-29" value="run_task(event)" style="verticalAlign=bottom;edgeStyle=elbowEdgeStyle;elbow=vertical;curved=0;rounded=0;endArrow=block;" parent="1" source="eCi2nVNfZXWdF3Dx-J9_-17" target="eCi2nVNfZXWdF3Dx-J9_-18" edge="1">
          <mxGeometry relative="1" as="geometry">
            <Array as="points">
              <mxPoint x="603" y="247" />
            </Array>
          </mxGeometry>
        </mxCell>
        <mxCell id="eCi2nVNfZXWdF3Dx-J9_-30" value="Initialize model client" style="verticalAlign=bottom;edgeStyle=elbowEdgeStyle;elbow=vertical;curved=0;rounded=0;endArrow=block;" parent="1" source="eCi2nVNfZXWdF3Dx-J9_-18" target="eCi2nVNfZXWdF3Dx-J9_-19" edge="1">
          <mxGeometry relative="1" as="geometry">
            <Array as="points">
              <mxPoint x="813" y="293" />
            </Array>
          </mxGeometry>
        </mxCell>
        <mxCell id="eCi2nVNfZXWdF3Dx-J9_-31" value="Create AKS specialist agent" style="verticalAlign=bottom;edgeStyle=elbowEdgeStyle;elbow=vertical;curved=0;rounded=0;endArrow=block;" parent="1" source="eCi2nVNfZXWdF3Dx-J9_-18" target="eCi2nVNfZXWdF3Dx-J9_-20" edge="1">
          <mxGeometry relative="1" as="geometry">
            <Array as="points">
              <mxPoint x="913" y="339" />
            </Array>
          </mxGeometry>
        </mxCell>
        <mxCell id="eCi2nVNfZXWdF3Dx-J9_-32" value="Create KQL specialist agent" style="verticalAlign=bottom;edgeStyle=elbowEdgeStyle;elbow=vertical;curved=0;rounded=0;endArrow=block;" parent="1" source="eCi2nVNfZXWdF3Dx-J9_-18" target="eCi2nVNfZXWdF3Dx-J9_-21" edge="1">
          <mxGeometry relative="1" as="geometry">
            <Array as="points">
              <mxPoint x="1013" y="385" />
            </Array>
          </mxGeometry>
        </mxCell>
        <mxCell id="eCi2nVNfZXWdF3Dx-J9_-33" value="query_azure_monitor()" style="verticalAlign=bottom;edgeStyle=elbowEdgeStyle;elbow=vertical;curved=0;rounded=0;endArrow=block;" parent="1" source="eCi2nVNfZXWdF3Dx-J9_-21" target="eCi2nVNfZXWdF3Dx-J9_-22" edge="1">
          <mxGeometry relative="1" as="geometry">
            <Array as="points">
              <mxPoint x="1441" y="476" />
            </Array>
          </mxGeometry>
        </mxCell>
        <mxCell id="eCi2nVNfZXWdF3Dx-J9_-34" value="query results" style="verticalAlign=bottom;edgeStyle=elbowEdgeStyle;elbow=vertical;curved=0;rounded=0;dashed=1;dashPattern=2 3;endArrow=block;" parent="1" source="eCi2nVNfZXWdF3Dx-J9_-22" target="eCi2nVNfZXWdF3Dx-J9_-21" edge="1">
          <mxGeometry relative="1" as="geometry">
            <Array as="points">
              <mxPoint x="1444" y="522" />
            </Array>
          </mxGeometry>
        </mxCell>
        <mxCell id="eCi2nVNfZXWdF3Dx-J9_-35" value="shell() commands" style="verticalAlign=bottom;edgeStyle=elbowEdgeStyle;elbow=vertical;curved=0;rounded=0;endArrow=block;" parent="1" source="eCi2nVNfZXWdF3Dx-J9_-20" target="eCi2nVNfZXWdF3Dx-J9_-23" edge="1">
          <mxGeometry relative="1" as="geometry">
            <Array as="points">
              <mxPoint x="1441" y="623" />
            </Array>
          </mxGeometry>
        </mxCell>
        <mxCell id="eCi2nVNfZXWdF3Dx-J9_-36" value="command output" style="verticalAlign=bottom;edgeStyle=elbowEdgeStyle;elbow=vertical;curved=0;rounded=0;dashed=1;dashPattern=2 3;endArrow=block;" parent="1" source="eCi2nVNfZXWdF3Dx-J9_-23" target="eCi2nVNfZXWdF3Dx-J9_-20" edge="1">
          <mxGeometry relative="1" as="geometry">
            <Array as="points">
              <mxPoint x="1444" y="669" />
            </Array>
          </mxGeometry>
        </mxCell>
        <mxCell id="eCi2nVNfZXWdF3Dx-J9_-37" value="Response" style="verticalAlign=bottom;edgeStyle=elbowEdgeStyle;elbow=vertical;curved=0;rounded=0;dashed=1;dashPattern=2 3;endArrow=block;" parent="1" source="eCi2nVNfZXWdF3Dx-J9_-20" target="eCi2nVNfZXWdF3Dx-J9_-18" edge="1">
          <mxGeometry relative="1" as="geometry">
            <Array as="points">
              <mxPoint x="916" y="725" />
            </Array>
          </mxGeometry>
        </mxCell>
        <mxCell id="eCi2nVNfZXWdF3Dx-J9_-38" value="Response" style="verticalAlign=bottom;edgeStyle=elbowEdgeStyle;elbow=vertical;curved=0;rounded=0;dashed=1;dashPattern=2 3;endArrow=block;" parent="1" source="eCi2nVNfZXWdF3Dx-J9_-21" target="eCi2nVNfZXWdF3Dx-J9_-18" edge="1">
          <mxGeometry relative="1" as="geometry">
            <Array as="points">
              <mxPoint x="1016" y="771" />
            </Array>
          </mxGeometry>
        </mxCell>
        <mxCell id="eCi2nVNfZXWdF3Dx-J9_-39" value="Task results" style="verticalAlign=bottom;edgeStyle=elbowEdgeStyle;elbow=vertical;curved=0;rounded=0;dashed=1;dashPattern=2 3;endArrow=block;" parent="1" source="eCi2nVNfZXWdF3Dx-J9_-18" target="eCi2nVNfZXWdF3Dx-J9_-17" edge="1">
          <mxGeometry relative="1" as="geometry">
            <Array as="points">
              <mxPoint x="606" y="817" />
            </Array>
          </mxGeometry>
        </mxCell>
        <mxCell id="eCi2nVNfZXWdF3Dx-J9_-40" value="Response" style="verticalAlign=bottom;edgeStyle=elbowEdgeStyle;elbow=vertical;curved=0;rounded=0;dashed=1;dashPattern=2 3;endArrow=block;" parent="1" source="eCi2nVNfZXWdF3Dx-J9_-17" target="eCi2nVNfZXWdF3Dx-J9_-16" edge="1">
          <mxGeometry relative="1" as="geometry">
            <Array as="points">
              <mxPoint x="381" y="863" />
            </Array>
          </mxGeometry>
        </mxCell>
        <mxCell id="vLvmHLKSS193eOr8sfOR-3" value="" style="shape=parallelogram;perimeter=parallelogramPerimeter;whiteSpace=wrap;html=1;fixedSize=1;" vertex="1" parent="1">
          <mxGeometry x="790" y="430" width="120" height="60" as="geometry" />
        </mxCell>
      </root>
    </mxGraphModel>
  </diagram>
</mxfile>
